<?xml version="1.0" standalone="no"?>
<!DOCTYPE svg PUBLIC "-//W3C//DTD SVG 20010904//EN"
 "http://www.w3.org/TR/2001/REC-SVG-20010904/DTD/svg10.dtd">
<svg version="1.0" xmlns="http://www.w3.org/2000/svg"
 width="260.000000pt" height="260.000000pt" viewBox="0 0 260.000000 260.000000"
 preserveAspectRatio="xMidYMid meet">
<metadata>
Created by potrace 1.11, written by Peter Selinger 2001-2013
</metadata>
<g transform="translate(0.000000,260.000000) scale(0.100000,-0.100000)"
fill="#000000" stroke="none">
<path d="M726 2075 c3 -8 -6 -10 -27 -7 -28 4 -31 2 -25 -13 5 -14 4 -16 -8
-6 -11 9 -15 8 -21 -6 -13 -30 -14 -43 -2 -36 9 5 9 3 0 -8 -6 -8 -10 -27 -9
-41 2 -15 -1 -25 -6 -22 -5 3 -8 -2 -6 -12 2 -11 -2 -18 -8 -17 -7 1 -9 -8 -6
-23 2 -13 -1 -31 -8 -39 -7 -9 -8 -15 -2 -15 14 0 8 -33 -7 -38 -9 -3 -9 -7 0
-18 9 -11 9 -13 -2 -9 -11 4 -15 -6 -16 -42 -1 -25 -8 -50 -15 -54 -7 -4 -13
-27 -14 -51 l-1 -43 40 -3 c23 -1 47 -8 54 -14 10 -8 13 -7 13 3 0 12 2 12 9
1 6 -11 10 -10 16 5 10 21 12 29 14 44 0 5 5 8 9 5 4 -2 8 3 9 12 1 9 2 32 4
50 1 17 6 32 12 32 5 0 4 7 -3 15 -10 12 -9 16 4 21 9 3 13 10 10 15 -3 6 0
17 8 26 9 12 9 15 1 9 -18 -10 -16 0 5 31 12 19 13 25 3 18 -11 -6 -13 -4 -6
11 4 10 7 27 7 37 0 9 4 17 10 17 5 0 8 7 4 15 -3 8 0 15 7 15 8 0 6 4 -3 10
-14 9 -7 15 14 11 5 -1 4 4 -2 12 -9 10 -9 16 0 25 9 9 9 12 -2 12 -11 1 -11
3 3 11 9 5 17 15 17 22 0 7 -4 6 -10 -3 -5 -8 -10 -10 -10 -4 0 6 7 17 15 24
8 7 12 16 9 21 -8 14 -83 8 -78 -6z"/>
<path d="M853 2075 c3 -7 -1 -16 -10 -19 -13 -5 -13 -9 -2 -23 11 -13 11 -17
1 -21 -9 -3 -10 -7 -2 -17 8 -10 5 -19 -12 -36 -13 -12 -17 -19 -10 -15 14 8
17 -10 2 -19 -5 -3 -6 -13 -3 -22 5 -12 3 -14 -8 -8 -12 8 -12 6 0 -8 8 -11 9
-17 3 -17 -6 0 -9 -7 -6 -15 4 -9 0 -15 -7 -15 -12 0 -12 -2 -1 -9 11 -7 11
-9 -2 -14 -10 -4 -13 -13 -9 -23 3 -9 0 -20 -8 -26 -11 -7 -11 -11 -2 -15 9
-3 10 -10 3 -23 -7 -13 -6 -20 3 -23 7 -3 5 -6 -5 -6 -11 -1 -15 -6 -12 -16 4
-8 1 -15 -5 -15 -6 0 -8 -7 -4 -17 5 -11 3 -14 -6 -8 -10 6 -11 3 -1 -15 8
-16 9 -20 1 -15 -8 4 -10 -2 -7 -19 2 -14 -1 -27 -7 -29 -8 -3 -5 -10 8 -20
13 -10 25 -12 36 -7 10 6 21 5 29 -3 8 -7 10 -7 7 -1 -4 8 10 11 43 11 28 -1
46 -5 43 -10 -4 -6 -1 -7 8 -1 18 11 110 14 103 3 -3 -5 5 -5 18 -1 30 11 179
9 197 -2 10 -6 12 -5 7 2 -8 14 71 12 93 -2 9 -6 12 -5 8 1 -5 8 21 10 77 10
46 -1 82 -5 80 -9 -3 -5 6 -4 19 1 17 7 29 6 37 -2 9 -8 11 -8 7 -1 -4 7 3 12
18 12 14 0 23 -4 20 -8 -2 -3 2 -7 10 -7 8 0 12 4 9 8 -6 10 78 5 95 -5 10 -7
12 -5 7 3 -6 8 -2 11 10 9 12 -2 18 2 16 11 -2 8 3 11 11 8 10 -4 13 1 9 19
-2 13 0 24 4 24 5 0 9 19 8 43 0 49 5 69 16 62 4 -3 11 2 14 10 3 9 -1 18 -9
21 -13 5 -12 8 1 21 8 9 13 22 10 29 -3 8 0 14 7 14 9 0 8 3 -1 9 -11 6 -10
10 4 15 16 6 16 8 4 16 -11 7 -12 10 -2 10 7 0 10 5 7 10 -3 6 -2 10 4 10 6 0
8 7 5 15 -4 8 -1 15 6 15 10 0 10 3 0 15 -9 11 -9 15 -1 15 7 0 9 5 6 10 -4 6
-1 18 7 27 7 9 8 14 2 10 -7 -4 -14 0 -17 8 -4 8 -1 12 6 9 7 -2 13 3 14 13 1
10 4 30 7 46 l4 27 -510 0 c-430 -1 -509 -3 -505 -15z"/>
<path d="M1925 2068 c2 -11 -2 -21 -10 -24 -7 -3 -11 -12 -8 -20 3 -8 0 -21
-6 -28 -9 -10 -9 -16 -1 -21 8 -5 8 -11 -1 -21 -6 -8 -9 -23 -6 -34 3 -11 0
-18 -6 -17 -6 1 -11 -12 -11 -30 0 -18 -3 -33 -7 -33 -3 0 -4 -12 -1 -26 3
-18 1 -25 -6 -20 -6 3 -14 1 -18 -5 -4 -7 -3 -9 3 -6 6 4 13 0 17 -8 3 -8 2
-14 -2 -14 -19 3 -25 -2 -12 -11 11 -7 11 -10 2 -10 -7 0 -10 -5 -7 -10 4 -6
1 -17 -5 -25 -10 -12 -10 -15 1 -15 10 0 10 -3 3 -8 -6 -4 -10 -15 -8 -24 1
-10 -2 -18 -7 -18 -4 0 -5 -7 -2 -17 4 -11 3 -14 -5 -9 -8 5 -10 2 -6 -8 4 -9
1 -16 -6 -16 -9 0 -10 -3 -1 -13 6 -8 8 -17 4 -21 -8 -8 24 -2 49 8 10 5 23 6
30 4 7 -3 21 5 30 16 17 20 18 20 11 1 -3 -11 -4 -18 -2 -15 33 40 42 52 32
46 -7 -4 -13 -2 -13 3 0 6 10 12 23 12 18 1 18 2 4 6 -18 5 -18 5 0 19 12 8
13 13 5 14 -8 0 -10 5 -5 13 4 6 6 22 4 35 -2 15 3 22 16 23 10 0 13 3 6 6 -7
2 -13 9 -13 15 0 6 6 8 14 5 11 -5 13 0 6 24 -6 21 -5 27 2 23 7 -5 9 0 6 14
-3 12 0 26 7 32 8 6 11 19 8 27 -5 12 -3 14 8 8 12 -7 12 -6 1 7 -10 13 -10
17 0 21 11 4 10 7 0 15 -11 7 -11 10 3 16 10 3 13 11 8 18 -11 19 -13 39 -2
32 6 -3 8 5 5 20 -3 15 -1 24 4 21 5 -3 11 -1 14 4 4 5 -5 8 -19 6 -19 -2 -23
1 -15 10 8 10 8 15 -1 21 -8 4 -9 3 -5 -4 4 -7 1 -12 -8 -12 -9 0 -16 5 -16
10 0 7 -19 10 -44 9 -37 -2 -44 -6 -41 -21z"/>
<path d="M1081 1513 c-1 -7 -4 -12 -8 -12 -19 3 -36 -2 -30 -8 4 -3 1 -13 -6
-21 -10 -13 -9 -14 3 -7 13 8 13 6 1 -8 -7 -9 -10 -24 -7 -33 6 -15 4 -15 -10
-3 -16 13 -16 12 -5 -10 7 -13 9 -21 3 -17 -5 3 -13 -1 -16 -10 -4 -10 -2 -13
6 -8 8 5 9 2 5 -10 -4 -10 -7 -22 -7 -27 0 -6 -4 -8 -8 -5 -5 3 -9 -1 -9 -9 0
-8 5 -11 10 -8 6 4 7 1 1 -8 -9 -14 -10 -19 -13 -40 0 -5 -7 -7 -13 -3 -10 6
-10 4 0 -7 17 -18 15 -32 -4 -25 -10 4 -13 2 -7 -7 13 -20 12 -36 -3 -48 -11
-9 -11 -15 -3 -25 9 -11 8 -15 -4 -20 -9 -3 -13 -13 -9 -26 4 -16 2 -19 -9
-13 -12 8 -12 6 0 -8 13 -16 9 -21 -14 -18 -5 1 -1 -6 9 -14 11 -8 14 -15 7
-15 -7 0 -9 -5 -5 -12 5 -8 2 -8 -10 1 -15 12 -17 12 -14 0 2 -8 10 -20 18
-27 8 -8 10 -11 3 -8 -14 7 -27 -10 -14 -18 11 -7 -10 -56 -23 -56 -6 0 -1 -7
10 -15 13 -11 14 -14 4 -13 -10 2 -14 -4 -12 -16 2 -10 -1 -15 -7 -12 -5 4
-13 1 -17 -5 -4 -8 -3 -9 4 -5 7 4 12 3 12 -3 0 -5 -5 -13 -11 -17 -8 -4 -7
-9 2 -15 12 -7 12 -9 0 -9 -7 0 -11 -6 -7 -15 3 -8 0 -15 -6 -15 -7 0 -6 -5 2
-15 10 -12 9 -16 -5 -21 -13 -5 -14 -9 -3 -15 9 -6 6 -9 -10 -9 -21 0 -22 -1
-8 -16 9 -8 14 -19 11 -23 -5 -10 36 -8 51 2 8 4 11 -1 10 -17 -1 -16 -6 -22
-15 -18 -10 4 -12 1 -6 -9 5 -10 3 -9 -9 2 -10 10 -27 14 -43 11 -18 -3 -21
-7 -11 -13 10 -7 9 -9 -4 -9 -11 0 -18 -8 -18 -20 0 -12 -10 -24 -22 -30 -13
-5 -17 -9 -10 -9 10 -1 10 -4 0 -15 -7 -8 -16 -12 -20 -9 -5 2 -8 -1 -8 -6 0
-6 5 -11 10 -11 6 0 10 -5 10 -11 0 -5 -5 -7 -12 -3 -6 4 -8 3 -4 -4 9 -16
466 -14 485 1 12 9 13 9 7 0 -5 -9 -2 -11 9 -7 13 5 13 9 3 22 -10 12 -10 14
0 8 6 -4 12 -3 12 3 0 5 -5 11 -12 13 -6 2 -12 12 -14 21 -1 11 2 14 9 10 8
-5 8 -2 0 9 -7 8 -10 18 -6 21 3 4 2 7 -4 7 -17 0 -23 51 -6 57 8 3 12 12 8
21 -4 12 -3 13 9 3 13 -11 14 -9 10 14 -3 18 -1 24 7 20 8 -6 8 -2 0 14 -8 15
-9 21 -1 21 6 0 8 5 5 10 -3 6 -1 10 6 10 8 0 7 5 -2 17 -12 14 -12 16 0 8 11
-6 13 -3 8 14 -4 16 -2 21 8 17 14 -5 15 11 1 33 -7 10 -5 13 5 9 10 -4 14 3
15 21 1 14 -1 20 -3 14 -3 -7 -9 -13 -14 -13 -4 0 -6 7 -3 15 4 8 13 15 20 15
11 0 12 4 4 19 -7 14 -7 22 2 27 6 4 8 3 4 -4 -3 -6 -3 -13 2 -16 7 -4 13 22
15 72 1 12 5 22 10 22 5 0 3 8 -4 17 -10 11 -10 14 -1 9 7 -4 12 -2 12 4 0 6
6 8 13 5 6 -4 3 1 -7 9 -11 9 -16 16 -10 16 5 0 15 9 22 21 8 12 9 18 3 14
-13 -7 -14 -3 -5 19 3 9 10 13 15 10 5 -3 5 6 0 19 -8 20 -6 29 9 42 15 14 17
22 9 37 -8 16 -8 19 1 13 9 -5 10 -1 5 15 -5 17 -4 21 6 15 8 -5 11 -5 7 0 -4
4 -3 14 4 22 9 11 7 12 -8 7 -16 -6 -16 -4 4 15 22 22 30 37 14 27 -5 -3 -9 2
-9 10 0 8 6 13 14 10 11 -4 11 -1 3 14 -7 14 -7 20 0 20 5 0 10 5 10 11 0 5
-6 7 -12 4 -7 -4 -5 0 5 8 18 15 24 32 7 22 -5 -3 -10 -2 -10 3 0 5 -6 9 -12
9 -7 0 -20 2 -28 4 -9 3 -14 -2 -12 -11 3 -11 -1 -10 -16 3 -14 13 -22 15 -27
7 -5 -8 -10 -8 -20 0 -10 8 -15 8 -21 -1 -5 -8 -3 -9 6 -4 9 6 11 4 6 -4 -6
-9 -12 -9 -25 3 -10 9 -20 13 -23 10 -10 -9 -117 -10 -111 -1 3 5 -4 4 -15 -2
-14 -8 -23 -8 -27 -1 -5 8 -11 8 -20 0 -10 -8 -14 -7 -18 2 -4 10 -6 10 -6 1z
m265 -102 c-4 -5 4 -7 16 -3 14 3 19 2 14 -6 -4 -7 -2 -12 4 -12 7 0 6 -5 -2
-14 -7 -8 -15 -13 -18 -13 -3 1 -6 -2 -7 -6 -1 -4 -23 -28 -48 -52 -25 -25
-45 -50 -45 -57 0 -6 -3 -9 -6 -5 -8 8 -44 -25 -38 -35 3 -4 -2 -8 -11 -8 -9
0 -13 -4 -10 -10 4 -6 -1 -7 -11 -3 -13 5 -16 3 -11 -9 3 -9 0 -19 -8 -22 -8
-3 -15 0 -18 7 -2 6 -6 1 -9 -11 -5 -16 -2 -22 10 -22 13 0 14 -2 4 -9 -8 -5
4 -8 31 -7 25 1 43 4 41 7 -2 4 7 9 19 11 18 3 23 0 22 -13 -1 -18 -41 -59
-57 -59 -4 0 -7 -3 -6 -7 4 -12 -99 -112 -108 -105 -4 4 -4 2 -1 -4 8 -15 -22
-56 -35 -48 -7 4 -8 2 -4 -4 4 -7 3 -12 -3 -12 -5 0 -13 -9 -16 -20 -4 -11
-10 -18 -14 -16 -3 3 -17 -9 -30 -25 -26 -32 -46 -37 -55 -14 -3 8 0 15 7 15
8 0 8 3 -2 9 -11 7 -9 10 7 15 12 4 24 16 27 27 4 10 10 17 14 15 4 -3 13 4
20 16 9 15 10 18 0 13 -8 -6 -10 -4 -5 4 5 7 13 10 20 8 7 -3 18 8 25 24 7 16
17 27 21 24 5 -3 16 7 24 23 8 16 22 32 31 35 9 4 15 18 14 34 0 15 -3 22 -6
15 -2 -6 -9 -10 -14 -7 -5 3 -17 1 -28 -5 -14 -7 -22 -7 -26 1 -5 6 -11 4 -19
-6 -11 -15 -13 -15 -25 -1 -7 9 -18 13 -25 11 -6 -3 -3 0 8 7 10 7 30 23 44
35 13 13 29 20 35 16 6 -3 7 -1 3 5 -4 7 10 28 31 48 21 21 37 42 35 48 -2 6
0 7 4 3 4 -4 14 3 22 15 11 19 12 19 7 3 -4 -15 -3 -17 5 -9 6 6 12 20 13 32
0 11 5 18 9 16 5 -3 5 -10 2 -16 -4 -7 -2 -8 5 -4 6 4 9 12 6 17 -4 5 -1 9 4
9 6 0 10 3 10 8 -3 19 2 25 11 12 9 -13 10 -13 10 0 0 18 45 72 53 64 3 -3 8
4 12 15 3 12 11 21 16 21 6 0 8 -4 5 -9z m-328 -739 c15 0 20 3 15 11 -5 9 -3
9 8 1 20 -15 61 -16 52 -1 -5 9 -3 9 8 1 18 -14 61 -16 53 -3 -3 6 3 5 14 -2
16 -10 23 -10 36 0 12 11 15 9 13 -8 0 -11 -4 -18 -8 -15 -4 2 -15 -4 -25 -13
-17 -17 -18 -17 -11 0 4 11 2 17 -9 17 -8 0 -12 -5 -8 -11 4 -7 -2 -6 -17 2
-23 12 -23 11 -9 -7 14 -18 14 -18 -4 -4 -11 8 -29 15 -40 15 -12 0 -26 -7
-33 -15 -10 -13 -12 -13 -18 3 -4 9 -11 17 -16 17 -4 0 -6 -8 -3 -17 5 -14 4
-15 -4 -4 -6 8 -25 14 -44 15 -33 1 -51 17 -27 25 7 2 9 -1 4 -10 -4 -8 0 -6
10 3 11 10 23 14 29 9 6 -4 21 -8 34 -9z"/>
<path d="M1286 1308 c3 -5 10 -6 15 -3 13 9 11 12 -6 12 -8 0 -12 -4 -9 -9z"/>
</g>
</svg>
